<svg width="32" height="32" viewBox="0 0 32 32" fill="none" xmlns="http://www.w3.org/2000/svg">
<g clip-path="url(#clip0_16_2)">
<path d="M0 6C0 2.68629 2.68629 0 6 0H26C29.3137 0 32 2.68629 32 6V32H6C2.68629 32 0 29.3137 0 26V6Z" fill="white"/>
<path d="M8.13778 19V5.90909H13.3026C14.2912 5.90909 15.1349 6.08594 15.8338 6.43963C16.5369 6.78906 17.0717 7.28551 17.4382 7.92898C17.8089 8.56818 17.9943 9.32031 17.9943 10.1854C17.9943 11.0547 17.8068 11.8026 17.4318 12.429C17.0568 13.0511 16.5135 13.5284 15.8018 13.8608C15.0945 14.1932 14.2379 14.3594 13.2322 14.3594H9.77415V12.1349H12.7848C13.3132 12.1349 13.7521 12.0625 14.1016 11.9176C14.451 11.7727 14.7109 11.5554 14.8814 11.2656C15.0561 10.9759 15.1435 10.6158 15.1435 10.1854C15.1435 9.75071 15.0561 9.38423 14.8814 9.08594C14.7109 8.78764 14.4489 8.56179 14.0952 8.40838C13.7457 8.25071 13.3047 8.17188 12.772 8.17188H10.9055V19H8.13778ZM15.2074 13.0426L18.4609 19H15.4055L12.2223 13.0426H15.2074Z" fill="#111112"/>
<path d="M20.7784 28H16.1378V14.9091H20.8168C22.1335 14.9091 23.267 15.1712 24.2173 15.6953C25.1676 16.2152 25.8984 16.9631 26.4098 17.9389C26.9254 18.9148 27.1832 20.0824 27.1832 21.4418C27.1832 22.8054 26.9254 23.9773 26.4098 24.9574C25.8984 25.9375 25.1634 26.6896 24.2045 27.2138C23.25 27.7379 22.108 28 20.7784 28ZM18.9055 25.6286H20.6634C21.4815 25.6286 22.1697 25.4837 22.728 25.1939C23.2905 24.8999 23.7124 24.446 23.9936 23.8324C24.2791 23.2145 24.4219 22.4176 24.4219 21.4418C24.4219 20.4744 24.2791 19.6839 23.9936 19.0703C23.7124 18.4567 23.2926 18.005 22.7344 17.7152C22.1761 17.4254 21.4879 17.2805 20.6697 17.2805H18.9055V25.6286Z" fill="#111112"/>
</g>
<defs>
<clipPath id="clip0_16_2">
<rect width="32" height="32" fill="white"/>
</clipPath>
</defs>
</svg>
