<svg width="191" height="32" viewBox="0 0 191 32" fill="none" xmlns="http://www.w3.org/2000/svg">
<path d="M46.996 8.808C48.008 8.808 48.91 8.94 49.702 9.204C50.494 9.45333 51.154 9.82 51.682 10.304C52.2247 10.7733 52.6353 11.3453 52.914 12.02C53.1927 12.68 53.332 13.428 53.332 14.264C53.332 14.924 53.2293 15.584 53.024 16.244C52.8333 16.904 52.5107 17.5053 52.056 18.048C51.616 18.5907 51.0293 19.0307 50.296 19.368C49.5627 19.6907 48.6533 19.852 47.568 19.852H45.28V25H42.09V8.808H46.996ZM47.546 16.772C48.03 16.772 48.4333 16.6913 48.756 16.53C49.0787 16.3687 49.328 16.1633 49.504 15.914C49.6947 15.6647 49.8267 15.408 49.9 15.144C49.988 14.8653 50.032 14.6087 50.032 14.374C50.032 14.198 50.0027 13.978 49.944 13.714C49.9 13.4353 49.7973 13.1567 49.636 12.878C49.4747 12.5993 49.2253 12.3647 48.888 12.174C48.5653 11.9833 48.1253 11.888 47.568 11.888H45.28V16.772H47.546ZM50.538 18.752L54.542 25H50.824L46.732 18.84L50.538 18.752ZM56.666 15.386H59.746V25H56.666V15.386ZM56.6 11.976C56.6 11.5213 56.776 11.1473 57.128 10.854C57.4947 10.5607 57.8834 10.414 58.294 10.414C58.7047 10.414 59.0787 10.5607 59.416 10.854C59.768 11.1473 59.944 11.5213 59.944 11.976C59.944 12.4307 59.768 12.8047 59.416 13.098C59.0787 13.3767 58.7047 13.516 58.294 13.516C57.8834 13.516 57.4947 13.3767 57.128 13.098C56.776 12.8047 56.6 12.4307 56.6 11.976ZM63.82 11.162H66.9V15.342H69.232V17.74H66.9V25H63.82V17.74H62.324V15.342H63.82V11.162ZM72.4782 11.162H75.5582V15.342H77.8902V17.74H75.5582V25H72.4782V17.74H70.9822V15.342H72.4782V11.162ZM79.4864 20.072C79.4864 19.0893 79.7137 18.2093 80.1684 17.432C80.6377 16.6547 81.2904 16.046 82.1264 15.606C82.9624 15.1513 83.9231 14.924 85.0084 14.924C86.1084 14.924 87.0617 15.1513 87.8684 15.606C88.6751 16.046 89.2911 16.6547 89.7164 17.432C90.1564 18.2093 90.3764 19.0893 90.3764 20.072C90.3764 21.0547 90.1564 21.942 89.7164 22.734C89.2911 23.5113 88.6751 24.1273 87.8684 24.582C87.0617 25.0367 86.0937 25.264 84.9644 25.264C83.9084 25.264 82.9624 25.0587 82.1264 24.648C81.3051 24.2373 80.6597 23.6433 80.1904 22.866C79.7211 22.0887 79.4864 21.1573 79.4864 20.072ZM82.5884 20.094C82.5884 20.5927 82.6911 21.0473 82.8964 21.458C83.1017 21.854 83.3804 22.1693 83.7324 22.404C84.0844 22.6387 84.4804 22.756 84.9204 22.756C85.4044 22.756 85.8224 22.6387 86.1744 22.404C86.5264 22.1693 86.7977 21.854 86.9884 21.458C87.1791 21.0473 87.2744 20.5927 87.2744 20.094C87.2744 19.5807 87.1791 19.126 86.9884 18.73C86.7977 18.334 86.5264 18.0187 86.1744 17.784C85.8224 17.5493 85.4044 17.432 84.9204 17.432C84.4804 17.432 84.0844 17.5493 83.7324 17.784C83.3804 18.0187 83.1017 18.334 82.8964 18.73C82.6911 19.126 82.5884 19.5807 82.5884 20.094ZM93.3088 25V8.808H98.1488C99.7768 8.808 101.163 9.05 102.307 9.534C103.451 10.018 104.367 10.6633 105.057 11.47C105.761 12.2767 106.274 13.1787 106.597 14.176C106.919 15.1733 107.081 16.178 107.081 17.19C107.081 18.3927 106.861 19.478 106.421 20.446C105.995 21.3993 105.409 22.2207 104.661 22.91C103.913 23.5847 103.047 24.1053 102.065 24.472C101.082 24.824 100.041 25 98.9408 25H93.3088ZM96.4988 21.92H98.3908C99.1974 21.92 99.9308 21.8173 100.591 21.612C101.251 21.392 101.815 21.0767 102.285 20.666C102.769 20.2553 103.135 19.742 103.385 19.126C103.649 18.4953 103.781 17.7767 103.781 16.97C103.781 15.914 103.605 15.056 103.253 14.396C102.915 13.7213 102.49 13.2007 101.977 12.834C101.478 12.4673 100.965 12.218 100.437 12.086C99.9088 11.9393 99.4614 11.866 99.0948 11.866H96.4988V21.92ZM113.823 25.264C112.929 25.264 112.115 25.088 111.381 24.736C110.663 24.3693 110.091 23.812 109.665 23.064C109.24 22.316 109.027 21.3627 109.027 20.204C109.027 19.1187 109.247 18.18 109.687 17.388C110.127 16.596 110.707 15.9873 111.425 15.562C112.144 15.122 112.907 14.902 113.713 14.902C114.667 14.902 115.385 15.0633 115.869 15.386C116.368 15.694 116.779 16.0387 117.101 16.42L116.969 16.794L117.255 15.386H120.115V25H117.035V22.91L117.277 23.57C117.248 23.57 117.16 23.658 117.013 23.834C116.867 23.9953 116.647 24.1933 116.353 24.428C116.075 24.648 115.723 24.8387 115.297 25C114.887 25.176 114.395 25.264 113.823 25.264ZM114.703 22.756C115.07 22.756 115.4 22.7047 115.693 22.602C115.987 22.4847 116.243 22.3233 116.463 22.118C116.683 21.898 116.874 21.6267 117.035 21.304V18.95C116.918 18.6273 116.742 18.356 116.507 18.136C116.273 17.9013 115.994 17.7253 115.671 17.608C115.349 17.476 114.989 17.41 114.593 17.41C114.153 17.41 113.743 17.5273 113.361 17.762C112.995 17.982 112.701 18.29 112.481 18.686C112.261 19.082 112.151 19.5367 112.151 20.05C112.151 20.5633 112.269 21.0253 112.503 21.436C112.738 21.8467 113.046 22.1693 113.427 22.404C113.823 22.6387 114.249 22.756 114.703 22.756ZM126.413 25.198C125.621 25.198 124.88 25.0587 124.191 24.78C123.516 24.5013 122.944 24.1127 122.475 23.614L123.751 21.92C124.22 22.3453 124.653 22.6533 125.049 22.844C125.46 23.02 125.826 23.108 126.149 23.108C126.398 23.108 126.618 23.086 126.809 23.042C127.014 22.9833 127.176 22.9027 127.293 22.8C127.41 22.6827 127.469 22.536 127.469 22.36C127.469 22.1107 127.366 21.9127 127.161 21.766C126.97 21.6193 126.721 21.502 126.413 21.414C126.105 21.3113 125.775 21.2087 125.423 21.106C124.543 20.8273 123.905 20.424 123.509 19.896C123.128 19.3533 122.937 18.7667 122.937 18.136C122.937 17.652 123.062 17.168 123.311 16.684C123.575 16.1853 123.986 15.7747 124.543 15.452C125.115 15.1147 125.848 14.946 126.743 14.946C127.55 14.946 128.232 15.0267 128.789 15.188C129.346 15.3493 129.874 15.6133 130.373 15.98L129.207 17.784C128.928 17.564 128.613 17.3807 128.261 17.234C127.924 17.0727 127.608 16.9847 127.315 16.97C127.051 16.9553 126.824 16.9847 126.633 17.058C126.457 17.1313 126.318 17.2267 126.215 17.344C126.112 17.4613 126.061 17.586 126.061 17.718C126.046 17.9967 126.149 18.2167 126.369 18.378C126.604 18.5393 126.897 18.664 127.249 18.752C127.601 18.84 127.946 18.9427 128.283 19.06C128.752 19.2067 129.156 19.4047 129.493 19.654C129.83 19.9033 130.087 20.204 130.263 20.556C130.454 20.8933 130.549 21.304 130.549 21.788C130.549 22.3747 130.395 22.932 130.087 23.46C129.794 23.9733 129.339 24.3913 128.723 24.714C128.122 25.0367 127.352 25.198 126.413 25.198ZM133.129 25V7.642H136.143V17.322L136.121 16.948C136.458 16.3467 136.935 15.8627 137.551 15.496C138.167 15.1147 138.922 14.924 139.817 14.924C140.726 14.924 141.482 15.1953 142.083 15.738C142.699 16.266 143.014 16.9553 143.029 17.806V25H139.949V18.95C139.934 18.5247 139.817 18.1873 139.597 17.938C139.392 17.674 139.04 17.542 138.541 17.542C138.072 17.542 137.661 17.696 137.309 18.004C136.957 18.312 136.686 18.73 136.495 19.258C136.304 19.786 136.209 20.3947 136.209 21.084V25H133.129Z" fill="white"/>
<mask id="mask0_66_17" style="mask-type:luminance" maskUnits="userSpaceOnUse" x="0" y="0" width="32" height="32">
<path d="M32 0H0V32H32V0Z" fill="white"/>
</mask>
<g mask="url(#mask0_66_17)">
<path d="M0 6C0 2.68629 2.68629 0 6 0H26C29.3137 0 32 2.68629 32 6V32H6C2.68629 32 0 29.3137 0 26V6Z" fill="white"/>
<path d="M8.13776 19.0001V5.90918H13.3026C14.2912 5.90918 15.1349 6.08603 15.8338 6.43972C16.5369 6.78915 17.0717 7.2856 17.4382 7.92907C17.8089 8.56827 17.9943 9.3204 17.9943 10.1855C17.9943 11.0548 17.8068 11.8027 17.4318 12.4291C17.0568 13.0512 16.5135 13.5285 15.8018 13.8609C15.0945 14.1933 14.2379 14.3595 13.2322 14.3595H9.77413V12.135H12.7848C13.3132 12.135 13.7521 12.0626 14.1016 11.9177C14.451 11.7728 14.7109 11.5555 14.8814 11.2657C15.0561 10.976 15.1435 10.6159 15.1435 10.1855C15.1435 9.7508 15.0561 9.38432 14.8814 9.08603C14.7109 8.78773 14.4489 8.56188 14.0952 8.40847C13.7457 8.2508 13.3047 8.17197 12.772 8.17197H10.9055V19.0001H8.13776ZM15.2074 13.0427L18.4609 19.0001H15.4055L12.2223 13.0427H15.2074Z" fill="#111112"/>
<path d="M20.7784 28.0001H16.1378V14.9092H20.8168C22.1335 14.9092 23.267 15.1713 24.2173 15.6954C25.1676 16.2153 25.8984 16.9632 26.4098 17.939C26.9254 18.9149 27.1832 20.0825 27.1832 21.4419C27.1832 22.8055 26.9254 23.9774 26.4098 24.9575C25.8984 25.9376 25.1634 26.6897 24.2045 27.2139C23.25 27.738 22.108 28.0001 20.7784 28.0001ZM18.9055 25.6287H20.6634C21.4815 25.6287 22.1697 25.4838 22.728 25.194C23.2905 24.9 23.7124 24.4461 23.9936 23.8325C24.2791 23.2146 24.4219 22.4177 24.4219 21.4419C24.4219 20.4745 24.2791 19.684 23.9936 19.0704C23.7124 18.4568 23.2926 18.0051 22.7344 17.7153C22.1761 17.4255 21.4879 17.2806 20.6697 17.2806H18.9055V25.6287Z" fill="#111112"/>
</g>
</svg>
